<svg width="114" height="35" viewBox="0 0 114 35" fill="none" xmlns="http://www.w3.org/2000/svg">
<g clip-path="url(#clip0_1985_4)">
<path d="M111.149 30.4112C111.149 32.1995 109.735 33.6493 107.99 33.6493H4.51334C3.674 33.6516 2.86826 33.3113 2.27399 32.7039C1.6797 32.0964 1.3457 31.2715 1.3457 30.4112V4.58366C1.35025 2.79402 2.76711 1.3457 4.51334 1.3457H108.014C109.749 1.35963 111.149 2.80525 111.149 4.58366V30.4112Z" fill="black" stroke="#979797" stroke-width="1.34598"/>
<path d="M23.8485 17.3457C23.8719 15.6639 24.7601 14.1109 26.2029 13.2295C25.2867 11.9304 23.8072 11.1362 22.2107 11.0867C20.5047 10.9088 18.9095 12.0861 18.048 12.0861C17.1864 12.0861 15.8558 11.1036 14.4397 11.1375C12.5737 11.1986 10.8769 12.2275 9.96987 13.8478C8.0335 17.1679 9.47511 22.0549 11.3347 24.7399C12.2645 26.0526 13.3478 27.5264 14.7468 27.4756C16.1457 27.4247 16.649 26.6286 18.3209 26.6286C19.9929 26.6286 20.462 27.4756 21.9122 27.4756C23.3623 27.4756 24.3348 26.1543 25.2304 24.8246C25.8963 23.8884 26.4087 22.8536 26.7488 21.7585C24.9724 21.0052 23.8278 19.2636 23.8485 17.3457Z" fill="white"/>
<path d="M21.1188 9.32447C21.9311 8.35814 22.3321 7.11544 22.2363 5.86035C20.9971 5.98834 19.8521 6.57497 19.0289 7.50347C18.2167 8.42096 17.8054 9.6216 17.8859 10.8406C19.1406 10.8537 20.3321 10.295 21.1188 9.32447Z" fill="white"/>
<path fill-rule="evenodd" clip-rule="evenodd" d="M41.9663 27.2716H43.9112L40.2347 16.0068H37.9742L34.3232 27.2716H36.2084L37.2236 23.96H40.9086L41.9663 27.2716ZM39.6376 19.6658L40.593 22.6132H37.5391L38.5542 19.6573C38.7988 18.7199 38.9779 18.0113 39.0917 17.5314C39.3475 18.6324 39.5295 19.3439 39.6376 19.6658Z" fill="white"/>
<path fill-rule="evenodd" clip-rule="evenodd" d="M52.1769 26.3905C52.9665 25.4844 53.3703 24.3091 53.3028 23.1128C53.3477 22.0262 52.993 20.9606 52.3049 20.1145C51.6449 19.3396 50.6546 18.9203 49.6345 18.9838C48.6144 19.0472 47.6846 19.5858 47.1271 20.4363L47.0246 19.149H45.4209C45.4664 20.0637 45.4891 20.9558 45.4891 21.8253V30.5831H47.3487V26.3059C47.8466 27.088 48.7401 27.5316 49.669 27.4577C50.6208 27.4777 51.535 27.0887 52.1769 26.3905ZM50.9144 21.224C51.2906 21.8064 51.4781 22.4892 51.4518 23.1805C51.4867 23.9122 51.2866 24.6358 50.8803 25.2471C50.5164 25.7645 49.9116 26.0617 49.2766 26.0348C48.7338 26.0532 48.2113 25.8295 47.852 25.425C47.485 25.0122 47.2898 24.4763 47.3061 23.9259V22.5708C47.3125 22.3845 47.3412 22.1997 47.3914 22.0201C47.4908 21.564 47.7435 21.1548 48.108 20.8599C48.4496 20.5749 48.8816 20.4189 49.3277 20.4193C49.9601 20.4022 50.5577 20.7054 50.9144 21.224Z" fill="white"/>
<path fill-rule="evenodd" clip-rule="evenodd" d="M61.5948 26.3905C62.3843 25.4844 62.7881 24.3091 62.7208 23.1128C62.7648 22.0263 62.4101 20.961 61.7228 20.1145C61.0627 19.3396 60.0724 18.9203 59.0523 18.9838C58.0323 19.0472 57.1025 19.5858 56.5449 20.4363L56.4426 19.149H54.8389C54.8844 20.0637 54.9071 20.9558 54.9071 21.8253V30.5831H56.7667V26.3059C57.2645 27.088 58.1581 27.5316 59.0869 27.4577C60.0389 27.4789 60.9535 27.0896 61.5948 26.3905ZM60.3324 21.224C60.7084 21.8064 60.8961 22.4892 60.8697 23.1805C60.9024 23.8988 60.7086 24.6095 60.3153 25.2133C59.9514 25.7307 59.3466 26.0278 58.7115 26.001C58.1568 26.0434 57.6129 25.8313 57.2358 25.425C56.8696 25.0118 56.6744 24.4761 56.6899 23.9259V22.5708C56.6969 22.3846 56.7255 22.1998 56.7752 22.0201C56.874 21.5637 57.1268 21.1542 57.4918 20.8599C57.8334 20.5749 58.2655 20.4189 58.7115 20.4193C59.3558 20.3904 59.9691 20.6949 60.3324 21.224Z" fill="white"/>
<path d="M73.2132 24.1122C73.2423 25.0008 72.8738 25.8567 72.2066 26.4499C71.3387 27.1527 70.2367 27.5062 69.1188 27.4408C68.0904 27.489 67.0695 27.2451 66.1758 26.7378L66.5937 25.2302C67.3851 25.708 68.2949 25.9574 69.2211 25.9502C69.7927 25.986 70.3594 25.8244 70.8248 25.4928C71.1999 25.196 71.4118 24.7407 71.3963 24.2647C71.4064 23.8329 71.2367 23.4162 70.9271 23.1128C70.468 22.7265 69.9338 22.4382 69.3575 22.2658C67.3785 21.5092 66.389 20.4222 66.389 19.005C66.3586 18.1082 66.7532 17.2492 67.4553 16.6843C68.2478 16.0756 69.2363 15.7745 70.2362 15.8372C71.12 15.8087 71.9977 15.9918 72.7952 16.3709L72.3602 17.8446C71.6909 17.4921 70.9424 17.3143 70.1849 17.3279C69.6438 17.2943 69.1092 17.4602 68.6836 17.7938C68.3918 18.0515 68.2268 18.4223 68.2315 18.8103C68.2241 19.2373 68.4162 19.644 68.7519 19.9113C69.2548 20.2789 69.8134 20.5647 70.4067 20.7582C71.2232 21.0439 71.9619 21.5137 72.5649 22.1304C73.0241 22.6867 73.2555 23.3941 73.2132 24.1122Z" fill="white"/>
<path d="M79.2604 20.5045H77.2557V24.4513C77.2557 25.4564 77.6084 25.959 78.3135 25.959C78.5862 25.9647 78.8585 25.9363 79.1239 25.8743L79.1836 27.2379C78.7271 27.3872 78.248 27.456 77.7676 27.4411C77.1303 27.4819 76.5068 27.2437 76.0616 26.789C75.596 26.156 75.3805 25.3755 75.4559 24.5953V20.5045H74.2617V19.1492H75.4559V17.6585L77.2388 17.125V19.1492H79.2433L79.2604 20.5045Z" fill="white"/>
<path fill-rule="evenodd" clip-rule="evenodd" d="M87.228 26.2216C87.9638 25.368 88.3478 24.2698 88.3027 23.1472C88.3533 22.0601 87.9806 20.9956 87.262 20.1743C86.5173 19.3757 85.4569 18.9422 84.3617 18.9885C83.2424 18.9368 82.1567 19.3766 81.3933 20.1911C80.6402 21.0431 80.2461 22.15 80.2928 23.2826C80.2536 24.3774 80.6347 25.4461 81.3591 26.2724C82.0899 27.0704 83.1399 27.5049 84.2252 27.4582C85.3609 27.5067 86.4602 27.054 87.228 26.2216ZM85.9314 21.2753C86.27 21.862 86.4383 22.5304 86.4175 23.2064C86.4256 23.8928 86.2393 24.5678 85.8801 25.1544C85.5573 25.7574 84.9258 26.1343 84.2381 26.1343C83.5503 26.1343 82.9188 25.7574 82.596 25.1544C82.2599 24.5728 82.0917 23.9106 82.1097 23.2403C82.0863 22.5533 82.2546 21.8732 82.596 21.2753C82.9247 20.6479 83.5907 20.2677 84.3021 20.3012C84.9877 20.2912 85.6194 20.6689 85.9314 21.2753Z" fill="white"/>
<path d="M94.2143 20.7336C94.0257 20.6994 93.8345 20.6825 93.6428 20.6828C93.0562 20.653 92.4955 20.925 92.1586 21.4027C91.8404 21.8783 91.6821 22.4416 91.7065 23.012V27.2468H89.8895V21.6822C89.8895 20.7449 89.8668 19.8979 89.8213 19.1413H91.4079L91.4762 20.6997H91.5273C91.7001 20.1921 92.0171 19.745 92.44 19.4123C92.8197 19.1318 93.2805 18.9804 93.7537 18.9804C93.9042 18.9688 94.0553 18.9688 94.2058 18.9804L94.2143 20.7336Z" fill="white"/>
<path fill-rule="evenodd" clip-rule="evenodd" d="M102.284 23.672C102.335 23.3927 102.358 23.1089 102.352 22.8249C102.375 21.93 102.122 21.0494 101.627 20.3011C101.024 19.4333 100.009 18.9393 98.9489 18.9967C97.8388 18.9536 96.7745 19.4379 96.0827 20.3011C95.3891 21.168 95.0293 22.2519 95.0676 23.3586C95.0125 24.4563 95.4027 25.5301 96.1509 26.34C96.9487 27.1093 98.0346 27.5118 99.145 27.4495C100.086 27.4726 101.021 27.3025 101.892 26.9497L101.61 25.6962C100.904 25.9593 100.155 26.0885 99.4009 26.0774C98.7577 26.1051 98.1254 25.9039 97.6181 25.5099C97.0919 25.0447 96.8011 24.3712 96.8248 23.672H102.284ZM100.297 20.9702C100.55 21.3884 100.671 21.872 100.646 22.3592H96.859C96.9001 21.8494 97.0863 21.3617 97.3963 20.9532C97.7227 20.4794 98.2687 20.2021 98.8465 20.2163C99.4332 20.1816 99.9912 20.4716 100.297 20.9702Z" fill="white"/>
<path fill-rule="evenodd" clip-rule="evenodd" d="M39.0916 11.323C39.7082 10.7378 40.0223 9.90511 39.9445 9.06161C40.003 8.30565 39.7183 7.56331 39.1683 7.03734C38.5317 6.57084 37.7482 6.34555 36.959 6.40211C36.442 6.40049 35.9257 6.44015 35.415 6.52069V11.9498C35.8483 11.998 36.2841 12.0206 36.7201 12.0175C37.5685 12.072 38.4088 11.8259 39.0916 11.323ZM38.4859 7.57093C38.8552 7.9775 39.043 8.51529 39.0063 9.06161H39.0403C39.0958 9.67768 38.8955 10.2895 38.4859 10.7556C38.0396 11.1394 37.4519 11.3206 36.8652 11.2553C36.6634 11.2681 36.4611 11.2681 36.2595 11.2553V7.11357C36.4959 7.07129 36.7359 7.05144 36.9761 7.05428C37.5292 7.01546 38.0743 7.20201 38.4859 7.57093Z" fill="white"/>
<path fill-rule="evenodd" clip-rule="evenodd" d="M44.4569 11.4166C44.8176 10.9978 45.0065 10.4596 44.9857 9.90897C45.0065 9.3726 44.8203 8.84858 44.4654 8.44371C44.0994 8.05158 43.5789 7.83806 43.0409 7.8593C42.4906 7.83479 41.9573 8.05157 41.5822 8.45218C41.214 8.87052 41.0217 9.41321 41.0448 9.96826C41.026 10.5084 41.2151 11.0354 41.5737 11.442C41.9324 11.8343 42.4479 12.0484 42.9812 12.0264C43.5396 12.0493 44.0798 11.8261 44.4569 11.4166ZM43.8172 9.06199C43.9659 9.32041 44.048 9.61139 44.0559 9.90896V9.96825C44.0761 10.3174 43.9931 10.6647 43.8172 10.9677C43.6709 11.2731 43.3556 11.4629 43.0152 11.4504C42.6619 11.4718 42.3286 11.2864 42.1623 10.9761C41.9962 10.6878 41.9135 10.3595 41.9234 10.0275C41.9118 9.68995 41.9944 9.35577 42.1623 9.06199C42.327 8.75015 42.6615 8.56416 43.0152 8.58768C43.3537 8.57369 43.6684 8.75984 43.8172 9.06199Z" fill="white"/>
<path d="M51.6827 7.97754L50.4287 11.9668H49.5757L49.0553 10.2728C48.9253 9.84948 48.8171 9.41977 48.7312 8.98544C48.6537 9.42159 48.5453 9.85178 48.4071 10.2728L47.8525 11.9668H46.9996L45.8564 7.97754H46.7692L47.2299 9.90863C47.338 10.3547 47.429 10.781 47.5028 11.1876C47.5711 10.8544 47.682 10.4309 47.8354 9.9171L48.4071 8.01142H49.132L49.6781 9.87475C49.8088 10.3321 49.9169 10.7697 50.0022 11.1876C50.0695 10.7454 50.1606 10.3072 50.2752 9.87475L50.7613 8.01142H51.6144L51.6827 7.97754Z" fill="white"/>
<path d="M56.3232 11.9672H55.4702V9.68034C55.4702 8.97452 55.2001 8.62162 54.6598 8.62162C54.4119 8.61948 54.1753 8.7246 54.0116 8.90959C53.8479 9.10086 53.76 9.34472 53.7642 9.59564V11.9672H52.9111V9.12133C52.9111 8.77125 52.9111 8.39011 52.9111 7.97792H53.5935V8.60469C53.7015 8.40624 53.8605 8.23969 54.0541 8.12191C54.297 7.97088 54.5781 7.89156 54.8646 7.89323C55.2144 7.88211 55.5534 8.01372 55.8028 8.25743C56.1344 8.61538 56.3011 9.09391 56.2636 9.57869L56.3232 11.9672Z" fill="white"/>
<path d="M58.7882 11.9671H57.8584V6.14844H58.7113L58.7882 11.9671Z" fill="white"/>
<path fill-rule="evenodd" clip-rule="evenodd" d="M63.5224 11.4166C63.8831 10.9978 64.072 10.4596 64.0512 9.90895C64.0681 9.38638 63.8886 8.87626 63.548 8.47757C63.182 8.08544 62.6615 7.87192 62.1234 7.89316C61.5785 7.85992 61.0459 8.064 60.6647 8.45216C60.2935 8.86921 60.0981 9.41203 60.1188 9.96824C60.0977 10.5072 60.2837 11.0341 60.6392 11.442C60.9972 11.8353 61.5132 12.0496 62.0467 12.0264C62.6051 12.0493 63.1452 11.8261 63.5224 11.4166ZM62.8826 9.06198C63.0314 9.32042 63.1135 9.61138 63.1216 9.90895V9.96824C63.1469 10.2992 63.0789 10.6306 62.9253 10.9253C62.779 11.2308 62.4638 11.4206 62.1235 11.4081C61.7701 11.4294 61.4368 11.2441 61.2704 10.9338C61.1119 10.6579 61.0295 10.3452 61.0317 10.0275C61.0199 9.68996 61.1026 9.35577 61.2704 9.06198C61.4204 8.75691 61.7394 8.57024 62.0808 8.58768C62.4192 8.5737 62.7339 8.75984 62.8826 9.06198Z" fill="white"/>
<path fill-rule="evenodd" clip-rule="evenodd" d="M67.5739 11.9671H68.3757C68.3331 11.6442 68.316 11.3185 68.3246 10.993V9.5193C68.3246 8.41825 67.7985 7.86771 66.7464 7.86771C66.262 7.85117 65.7827 7.9716 65.3645 8.21496L65.5352 8.82479C65.84 8.62934 66.1958 8.52633 66.5588 8.52835C67.1275 8.52835 67.4118 8.79091 67.4118 9.31603V9.34991C66.8184 9.31716 66.2277 9.44913 65.7057 9.73105C65.3087 9.96236 65.0724 10.3923 65.0915 10.849C65.0743 11.1626 65.1885 11.4692 65.4072 11.696C65.6478 11.9424 65.9831 12.0749 66.3285 12.0602C66.7891 12.0846 67.2313 11.8778 67.5057 11.5097L67.5739 11.9671ZM67.4459 9.97666V10.5865C67.4489 10.8358 67.3276 11.0704 67.1218 11.2132C66.9652 11.3329 66.7735 11.3984 66.5759 11.3996C66.4165 11.4059 66.2608 11.3514 66.1407 11.2471C66.0191 11.1234 65.957 10.9537 65.9702 10.7813C65.9702 10.2449 66.4622 9.97666 67.4459 9.97666Z" fill="white"/>
<path fill-rule="evenodd" clip-rule="evenodd" d="M72.667 11.9671H73.4604C73.4376 11.6396 73.4318 11.2839 73.4433 10.9V6.14844H72.5902V8.42679C72.3451 8.04832 71.9066 7.83876 71.4558 7.88474C70.9774 7.8773 70.5207 8.08229 70.2104 8.44374C69.8487 8.88474 69.6635 9.44257 69.69 10.0106C69.6651 10.543 69.8347 11.0664 70.1677 11.4844C70.4602 11.8507 70.9081 12.0606 71.3789 12.0518C71.9168 12.0886 72.4245 11.8015 72.667 11.3234V11.9671ZM72.5306 9.6041V10.2732V10.2817C72.5424 10.5412 72.4607 10.7964 72.3003 11.0016C72.132 11.219 71.8682 11.3421 71.5923 11.3319C71.2795 11.3401 70.984 11.1902 70.8074 10.9338C70.6129 10.6501 70.5171 10.3111 70.5345 9.96829C70.5214 9.61034 70.6229 9.25747 70.8245 8.9604C71.0011 8.70403 71.2966 8.55412 71.6092 8.56232C71.8294 8.55643 72.0435 8.63533 72.2065 8.78254C72.37 8.92416 72.4836 9.11415 72.5306 9.3246C72.5407 9.4175 72.5407 9.5112 72.5306 9.6041Z" fill="white"/>
<path fill-rule="evenodd" clip-rule="evenodd" d="M80.5741 11.4161C80.9349 10.9974 81.1237 10.4591 81.103 9.90848C81.1221 9.38702 80.9459 8.87703 80.6082 8.4771C80.2429 8.08402 79.722 7.8703 79.1837 7.89269C78.6358 7.85695 78.0997 8.06122 77.7165 8.4517C77.3453 8.86875 77.1498 9.41157 77.1706 9.96777C77.1494 10.5068 77.3354 11.0336 77.6909 11.4415C78.0496 11.8339 78.5651 12.0479 79.0984 12.0259C79.6571 12.05 80.1977 11.8266 80.5741 11.4161ZM79.9344 9.06152C80.0831 9.31995 80.1652 9.61093 80.1732 9.9085V9.96779C80.1888 10.3047 80.1091 10.6392 79.9429 10.9333C79.7845 11.2294 79.4745 11.4145 79.1368 11.4145C78.7991 11.4145 78.4891 11.2294 78.3307 10.9333C78.1721 10.6574 78.0897 10.3448 78.0919 10.0271C78.0802 9.6895 78.1628 9.35531 78.3307 9.06152C78.4873 8.76671 78.7968 8.58363 79.1325 8.58721C79.471 8.57324 79.7857 8.75938 79.9344 9.06152Z" fill="white"/>
<path d="M85.9059 11.9673H85.053V9.68052C85.053 8.9747 84.7686 8.6218 84.1999 8.6218C83.9505 8.61235 83.7107 8.7188 83.5516 8.90977C83.3873 9.10064 83.2993 9.34477 83.3043 9.59582V11.9673H82.4512V9.12151C82.4512 8.77143 82.4512 8.39029 82.4512 7.9781H83.236V8.60485C83.3446 8.40688 83.5035 8.24048 83.6966 8.12209C83.9517 7.9631 84.2487 7.88347 84.5497 7.89341C84.8994 7.88229 85.2386 8.0139 85.488 8.2576C85.8194 8.61555 85.9863 9.09409 85.9486 9.57887L85.9059 11.9673Z" fill="white"/>
<path d="M91.9282 8.63891H90.9473V10.5785C90.9473 11.0697 91.1264 11.3153 91.4676 11.3153C91.6008 11.3323 91.7355 11.3323 91.8686 11.3153V11.9929C91.646 12.0667 91.4122 12.1011 91.1776 12.0946C90.8591 12.1196 90.546 12.0015 90.3246 11.7727C90.0955 11.4627 89.9892 11.0798 90.0261 10.697V8.63891H89.4375V7.97827H90.0261V7.24987L90.879 6.9873V7.97827H91.86V8.63891H91.9282Z" fill="white"/>
<path d="M96.6536 11.9671H95.8006V9.69725C95.8006 8.98015 95.5305 8.6216 94.9902 8.6216C94.5961 8.60713 94.2435 8.86278 94.1373 9.23989C94.1216 9.34661 94.1216 9.45502 94.1373 9.56174V11.9671H93.2842V6.14844H94.1373V8.55384C94.39 8.13246 94.8549 7.88221 95.3485 7.90167C95.6771 7.88458 95.999 7.99724 96.2441 8.21506C96.57 8.58263 96.7328 9.06499 96.6962 9.55327L96.6536 11.9671Z" fill="white"/>
<path fill-rule="evenodd" clip-rule="evenodd" d="M101.542 10.1884C101.554 10.0532 101.554 9.9171 101.542 9.78188C101.54 9.33834 101.4 8.90612 101.141 8.5453C100.846 8.1175 100.348 7.87343 99.8269 7.90161C99.281 7.88004 98.7577 8.11935 98.4194 8.5453C98.0806 8.97093 97.9053 9.50228 97.9246 10.0444C97.8962 10.5835 98.0868 11.1113 98.4536 11.5097C98.8446 11.8865 99.3768 12.0831 99.9207 12.0518C100.382 12.0612 100.841 11.9777 101.269 11.8061L101.132 11.1879C100.786 11.3166 100.418 11.3798 100.049 11.3742C99.7404 11.382 99.4389 11.2832 99.1957 11.0947C98.9356 10.8656 98.7919 10.5334 98.8033 10.1884H101.542ZM100.518 8.86716C100.643 9.07351 100.703 9.31266 100.688 9.5532L98.8375 9.54474C98.8598 9.29613 98.9514 9.05862 99.1018 8.85869C99.2627 8.62849 99.5277 8.49215 99.8098 8.49448C100.097 8.4807 100.368 8.62364 100.518 8.86716Z" fill="white"/>
</g>
<defs>
<clipPath id="clip0_1985_4">
<rect width="113.062" height="34.9955" fill="white"/>
</clipPath>
</defs>
</svg>
