<svg width="36" height="36" viewBox="0 0 36 36" fill="none" xmlns="http://www.w3.org/2000/svg">
<rect x="0.5" y="0.5" width="35" height="35" rx="17.5" fill="white"/>
<g clip-path="url(#clip0_1981_2)">
<path fill-rule="evenodd" clip-rule="evenodd" d="M18.5 8C21.0377 8 23.4234 8.988 25.2177 10.7823C27.012 12.5766 28 14.9623 28 17.5C28 20.0377 27.012 22.4234 25.2177 24.2177C23.4234 26.012 21.0377 27 18.5 27C15.9635 27 13.5766 26.012 11.7823 24.2177C9.988 22.4234 9 20.0377 9 17.5C9 14.9623 9.988 12.5766 11.7823 10.7823C13.5766 8.988 15.9635 8 18.5 8ZM24.3781 23.3781C22.8083 24.948 20.7206 25.8125 18.5 25.8125C16.2794 25.8125 14.1918 24.948 12.6231 23.3781C11.052 21.8083 10.1875 19.7206 10.1875 17.5C10.1875 15.2794 11.052 13.1918 12.6231 11.6219C14.1929 10.052 16.2806 9.1875 18.5 9.1875C20.7206 9.1875 22.8083 10.052 24.3781 11.6219C25.948 13.1918 26.8125 15.2794 26.8125 17.5C26.8125 19.7206 25.948 21.8083 24.3781 23.3781ZM17.9062 12.7678V13.9553H19.0938V12.7678H17.9062ZM17.9062 15.1357V22.2334H19.0938V15.1357H17.9062Z" fill="#404553"/>
<path d="M17.9062 13.9553H17.6562V14.2053H17.9062V13.9553ZM17.9062 12.7678V12.5178H17.6562V12.7678H17.9062ZM19.0938 13.9553V14.2053H19.3438V13.9553H19.0938ZM19.0938 12.7678H19.3438V12.5178H19.0938V12.7678ZM17.9062 22.2334H17.6562V22.4834H17.9062V22.2334ZM17.9062 15.1357V14.8857H17.6562V15.1357H17.9062ZM19.0938 22.2334V22.4834H19.3438V22.2334H19.0938ZM19.0938 15.1357H19.3438V14.8857H19.0938V15.1357ZM25.3945 10.6055C23.5533 8.76433 21.104 7.75 18.5 7.75V8.25C20.9714 8.25 23.2935 9.21167 25.0409 10.9591L25.3945 10.6055ZM28.25 17.5C28.25 14.896 27.2357 12.4467 25.3945 10.6055L25.0409 10.9591C26.7883 12.7065 27.75 15.0286 27.75 17.5H28.25ZM25.3945 24.3945C27.2357 22.5533 28.25 20.104 28.25 17.5H27.75C27.75 19.9714 26.7883 22.2935 25.0409 24.0409L25.3945 24.3945ZM18.5 27.25C21.104 27.25 23.5533 26.2357 25.3945 24.3945L25.0409 24.0409C23.2935 25.7883 20.9714 26.75 18.5 26.75V27.25ZM11.6055 24.3945C13.4467 26.2357 15.8972 27.25 18.5 27.25V26.75C16.0298 26.75 13.7065 25.7883 11.9591 24.0409L11.6055 24.3945ZM8.75 17.5C8.75 20.104 9.76433 22.5533 11.6055 24.3945L11.9591 24.0409C10.2117 22.2935 9.25 19.9714 9.25 17.5H8.75ZM11.6055 10.6055C9.76433 12.4467 8.75 14.896 8.75 17.5H9.25C9.25 15.0286 10.2117 12.7065 11.9591 10.9591L11.6055 10.6055ZM18.5 7.75C15.8972 7.75 13.4467 8.76432 11.6055 10.6055L11.9591 10.9591C13.7065 9.21168 16.0298 8.25 18.5 8.25V7.75ZM18.5 26.0625C20.7869 26.0625 22.9381 25.1717 24.5549 23.5549L24.2013 23.2013C22.6784 24.7243 20.6543 25.5625 18.5 25.5625V26.0625ZM12.4462 23.5548C14.0619 25.1717 16.2131 26.0625 18.5 26.0625V25.5625C16.3456 25.5625 14.3217 24.7243 12.7999 23.2014L12.4462 23.5548ZM9.9375 17.5C9.9375 19.7869 10.8282 21.938 12.4462 23.5548L12.7999 23.2014C11.2758 21.6784 10.4375 19.6543 10.4375 17.5H9.9375ZM12.4464 11.445C10.8283 13.0618 9.9375 15.2131 9.9375 17.5H10.4375C10.4375 15.3457 11.2757 13.3217 12.7998 11.7987L12.4464 11.445ZM18.5 8.9375C16.2143 8.9375 14.0631 9.82827 12.4464 11.445L12.7998 11.7987C14.3228 10.2757 16.3469 9.4375 18.5 9.4375V8.9375ZM24.5549 11.4451C22.9381 9.82832 20.7869 8.9375 18.5 8.9375V9.4375C20.6543 9.4375 22.6784 10.2757 24.2013 11.7986L24.5549 11.4451ZM27.0625 17.5C27.0625 15.2131 26.1717 13.0619 24.5549 11.4451L24.2013 11.7986C25.7243 13.3216 26.5625 15.3456 26.5625 17.5H27.0625ZM24.5549 23.5549C26.1717 21.9381 27.0625 19.7869 27.0625 17.5H26.5625C26.5625 19.6543 25.7243 21.6784 24.2013 23.2013L24.5549 23.5549ZM18.1562 13.9553V12.7678H17.6562V13.9553H18.1562ZM19.0938 13.7053H17.9062V14.2053H19.0938V13.7053ZM18.8438 12.7678V13.9553H19.3438V12.7678H18.8438ZM17.9062 13.0178H19.0938V12.5178H17.9062V13.0178ZM18.1562 22.2334V15.1357H17.6562V22.2334H18.1562ZM19.0938 21.9834H17.9062V22.4834H19.0938V21.9834ZM18.8438 15.1357V22.2334H19.3438V15.1357H18.8438ZM17.9062 15.3857H19.0938V14.8857H17.9062V15.3857Z" fill="#404554"/>
</g>
<rect x="0.5" y="0.5" width="35" height="35" rx="17.5" stroke="#E2E5F1"/>
<defs>
<clipPath id="clip0_1981_2">
<rect width="24" height="24" fill="white" transform="translate(6 6)"/>
</clipPath>
</defs>
</svg>
