<svg width="114" height="35" viewBox="0 0 114 35" fill="none" xmlns="http://www.w3.org/2000/svg">
<g clip-path="url(#clip0_1985_5)">
<path d="M105.765 1.3457H6.72963C3.75617 1.3457 1.3457 3.75617 1.3457 6.72963V28.2653C1.3457 31.2388 3.75617 33.6493 6.72963 33.6493H105.765C108.739 33.6493 111.149 31.2388 111.149 28.2653V6.72963C111.149 3.75617 108.739 1.3457 105.765 1.3457Z" fill="black" stroke="#979797" stroke-width="1.34598"/>
<path d="M39.9158 9.61525C39.9438 10.2139 39.7233 10.7977 39.3058 11.2304C38.8393 11.7116 38.1886 11.973 37.5164 11.9492C36.84 11.9558 36.1894 11.6913 35.7119 11.2156C35.2342 10.7399 34.97 10.0931 34.9787 9.42143C34.97 8.7498 35.2342 8.103 35.7119 7.62729C36.1894 7.15156 36.84 6.88709 37.5164 6.89367C37.8603 6.89254 38.2007 6.96124 38.5169 7.09557C38.8111 7.21344 39.0732 7.39887 39.2814 7.63666L38.8503 8.06468C38.5212 7.67597 38.0271 7.46359 37.5164 7.49129C37.0046 7.48887 36.5136 7.69304 36.1563 8.05698C35.799 8.42092 35.6058 8.91339 35.6213 9.42143C35.6104 10.1912 36.067 10.8919 36.7787 11.1975C37.4903 11.5031 38.3173 11.3536 38.8747 10.8186C39.125 10.5493 39.2693 10.1995 39.2814 9.8333H37.5164V9.25184H39.8833C39.905 9.37178 39.9159 9.4934 39.9158 9.61525Z" fill="white" stroke="white" stroke-width="0.269196"/>
<path d="M43.6407 7.59664H41.4446V9.13106H43.4454V9.71252H41.4446V11.2469H43.6407V11.8446H40.7939V6.99902H43.6407V7.59664Z" fill="white" stroke="white" stroke-width="0.269196"/>
<path d="M46.3082 11.8446H45.6819V7.59664H44.3154V6.99902H47.7072V7.59664H46.3082V11.8446Z" fill="white" stroke="white" stroke-width="0.269196"/>
<path d="M50.0986 11.8446V6.99902H50.7249V11.8446H50.0986Z" fill="white" stroke="white" stroke-width="0.269196"/>
<path d="M53.5064 11.8446H52.8801V7.59664H51.5137V6.99902H54.8648V7.59664H53.5064V11.8446Z" fill="white" stroke="white" stroke-width="0.269196"/>
<path fill-rule="evenodd" clip-rule="evenodd" d="M56.9225 9.42222C56.9077 10.0913 57.1658 10.7379 57.6383 11.2151C58.6281 12.1924 60.2271 12.1924 61.2171 11.2151C61.6895 10.7379 61.9477 10.0913 61.9328 9.42222C61.9477 8.75319 61.6895 8.10659 61.2171 7.62937C60.7437 7.15592 60.0995 6.88965 59.4276 6.88965C58.7558 6.88965 58.1117 7.15592 57.6383 7.62937C57.1658 8.10659 56.9077 8.75319 56.9225 9.42222ZM60.7534 10.8113C60.0204 11.5361 58.835 11.5361 58.102 10.8113C57.7371 10.4414 57.5402 9.93966 57.557 9.42222C57.5315 8.90944 57.7163 8.40831 58.0694 8.03317C58.8024 7.3083 59.9878 7.3083 60.721 8.03317C61.0977 8.39757 61.3066 8.90003 61.2984 9.42222C61.3152 9.93966 61.1183 10.4414 60.7534 10.8113Z" fill="white"/>
<path d="M57.638 11.2149L57.5423 11.3096L57.5435 11.3107L57.638 11.2149ZM56.9222 9.42205L57.057 9.42506L57.0568 9.41907L56.9222 9.42205ZM61.2168 11.2149L61.3113 11.3107L61.3124 11.3096L61.2168 11.2149ZM61.9325 9.42205L61.7979 9.41907L61.798 9.42506L61.9325 9.42205ZM58.1017 10.8111L58.0059 10.9056L58.0069 10.9068L58.1017 10.8111ZM60.7532 10.8111L60.8478 10.9068L60.849 10.9056L60.7532 10.8111ZM57.5567 9.42205L57.6917 9.42643L57.6912 9.41538L57.5567 9.42205ZM58.0691 8.033L57.9744 7.93722L57.9711 7.94076L58.0691 8.033ZM60.7207 8.033L60.626 8.12871L60.627 8.12975L60.7207 8.033ZM61.2981 9.42205L61.1634 9.41994L61.1637 9.42641L61.2981 9.42205ZM57.7337 11.1202C57.2867 10.6688 57.043 10.0575 57.057 9.42506L56.7878 9.41907C56.772 10.1247 57.0442 10.8066 57.5423 11.3096L57.7337 11.1202ZM61.1222 11.1191C60.1847 12.0447 58.67 12.0447 57.7326 11.1191L57.5435 11.3107C58.5857 12.3398 60.2691 12.3398 61.3113 11.3107L61.1222 11.1191ZM61.798 9.42506C61.812 10.0575 61.568 10.6688 61.1211 11.1202L61.3124 11.3096C61.8106 10.8066 62.0829 10.1247 62.0671 9.41907L61.798 9.42506ZM61.1211 7.72391C61.568 8.17528 61.8119 8.78667 61.7979 9.41907L62.0671 9.42506C62.0829 8.71937 61.8106 8.03755 61.3124 7.5345L61.1211 7.72391ZM59.4274 7.02408C60.0637 7.02408 60.6731 7.2758 61.1211 7.72391L61.3124 7.5345C60.8137 7.03569 60.1349 6.75488 59.4274 6.75488V7.02408ZM57.7332 7.72438C58.1813 7.27628 58.7911 7.02408 59.4274 7.02408V6.75488C58.7199 6.75488 58.0415 7.03524 57.5429 7.53404L57.7332 7.72438ZM57.0568 9.41907C57.0428 8.78667 57.2862 8.17576 57.7332 7.72438L57.5429 7.53404C57.0447 8.03709 56.772 8.71937 56.7878 9.42506L57.0568 9.41907ZM58.0069 10.9068C58.7926 11.6835 60.0623 11.6835 60.8478 10.9068L60.6585 10.7154C59.9779 11.3884 58.877 11.3884 58.1963 10.7154L58.0069 10.9068ZM57.4221 9.41769C57.4042 9.97216 57.6151 10.5096 58.0059 10.9056L58.1974 10.7166C57.8585 10.3729 57.6762 9.90685 57.6917 9.42643L57.4221 9.41769ZM57.9711 7.94076C57.5931 8.34245 57.3951 8.87926 57.4223 9.42873L57.6912 9.41538C57.6675 8.93929 57.8391 8.47384 58.1671 8.12524L57.9711 7.94076ZM60.8153 7.93729C60.0298 7.16058 58.7599 7.16051 57.9744 7.93722L58.1638 8.12871C58.8444 7.4557 59.9454 7.4557 60.626 8.12871L60.8153 7.93729ZM61.4327 9.42417C61.4415 8.86462 61.2177 8.32641 60.8143 7.93625L60.627 8.12975C60.9773 8.4684 61.1711 8.93512 61.1634 9.41994L61.4327 9.42417ZM60.849 10.9056C61.2397 10.5096 61.4506 9.97216 61.4327 9.41769L61.1637 9.42641C61.1792 9.90684 60.9964 10.3729 60.6573 10.7166L60.849 10.9056Z" fill="white"/>
<path d="M62.8193 11.8446V6.99902H63.5838L65.9588 10.7705V9.83366V6.99902H66.5851V11.8446H65.9345L63.4456 7.89545V8.83225V11.8446H62.8193Z" fill="white" stroke="white" stroke-width="0.269196"/>
<path fill-rule="evenodd" clip-rule="evenodd" d="M40.2788 19.9732V21.4269H43.7925C43.7374 22.1116 43.4507 22.7577 42.9791 23.2601C42.2683 23.979 41.2845 24.3663 40.2706 24.3261C38.1144 24.3261 36.3666 22.5906 36.3666 20.4497C36.3666 18.3088 38.1144 16.5733 40.2706 16.5733C41.2611 16.5573 42.2175 16.9319 42.9302 17.6151L43.9633 16.5894C42.9912 15.6121 41.662 15.0674 40.2788 15.0792C38.3096 15.0032 36.4563 16.0029 35.4489 17.6845C34.4415 19.3663 34.4415 21.4604 35.4489 23.1422C36.4563 24.8239 38.3096 25.8235 40.2788 25.7475C41.6874 25.8108 43.0545 25.2659 44.0283 24.2535C44.8804 23.3239 45.3354 22.1019 45.2971 20.8454C45.2998 20.5394 45.2725 20.2337 45.2158 19.9329L40.2788 19.9732ZM49.2989 18.9153C47.3908 18.9197 45.8472 20.4585 45.8502 22.3529C45.8533 24.2474 47.4017 25.7813 49.3098 25.7798C51.2178 25.7783 52.7638 24.2422 52.7638 22.3475C52.7772 21.4304 52.4151 20.5472 51.7603 19.9001C51.1056 19.2531 50.2144 18.8977 49.2908 18.9153H49.2989ZM53.4308 22.3583C53.4247 20.4648 54.9643 18.9242 56.8712 18.9153C57.7949 18.8977 58.686 19.2531 59.3409 19.9001C59.9955 20.5472 60.3577 21.4304 60.3443 22.3475C60.3443 24.2411 58.7999 25.7768 56.8929 25.7798C54.9859 25.7828 53.4367 24.2517 53.4308 22.3583ZM54.8314 23.2508C55.2028 24.0228 56.0117 24.4909 56.8712 24.4311C57.4107 24.4187 57.9223 24.1905 58.2899 23.7981C58.6574 23.4058 58.8498 22.8827 58.8233 22.3475C58.8212 21.492 58.2926 20.7247 57.4904 20.4127C56.6881 20.1006 55.7752 20.307 55.1884 20.9335C54.6015 21.5599 54.4599 22.4788 54.8314 23.2508ZM47.2535 23.257C47.6276 24.0284 48.4389 24.4941 49.2989 24.4311H49.2908C49.8303 24.4187 50.3417 24.1905 50.7093 23.7981C51.0769 23.4058 51.2693 22.8827 51.2427 22.3475C51.2405 21.4914 50.7108 20.7238 49.9075 20.4123C49.1043 20.101 48.1909 20.3092 47.605 20.9372C47.0189 21.5654 46.8795 22.4855 47.2535 23.257ZM74.1714 18.9153C75.5198 18.9646 76.6977 19.8353 77.132 21.1039L77.3028 21.4673L72.6748 23.3651C72.9649 24.021 73.6294 24.4342 74.3503 24.4069C75.0464 24.4087 75.6921 24.0467 76.0503 23.4539L77.2296 24.2615C76.5876 25.2157 75.506 25.786 74.3503 25.7798C73.4317 25.7931 72.5471 25.4351 71.8997 24.7878C71.2524 24.1404 70.898 23.2596 70.9179 22.3475C70.8618 21.4564 71.1796 20.5819 71.7959 19.9316C72.4122 19.2815 73.272 18.9135 74.1714 18.9153ZM72.4145 22.2506C72.3813 21.746 72.5538 21.2494 72.8935 20.8726C73.2333 20.4957 73.7114 20.2706 74.2201 20.2478C74.7565 20.2127 75.2621 20.4987 75.5053 20.9746L72.4145 22.2506ZM70.1778 25.5779H68.6568V15.483H70.1778V25.5779ZM66.1679 19.6825H66.111C65.6473 19.1678 64.9846 18.874 64.2891 18.8749C62.4428 18.9637 60.992 20.476 60.992 22.3112C60.992 24.1465 62.4428 25.6587 64.2891 25.7475C64.9868 25.7592 65.6539 25.4635 66.111 24.9399H66.1597V25.4325C66.1597 26.7489 65.4521 27.4515 64.3134 27.4515C63.5378 27.4335 62.85 26.9516 62.5728 26.2321L61.2472 26.7812C61.7577 28.0143 62.9708 28.8162 64.3134 28.8083C66.0947 28.8083 67.567 27.7665 67.567 25.2306V19.1172H66.1679V19.6825ZM64.4248 24.4309L64.4273 24.4311H64.4192L64.4248 24.4309ZM65.7954 23.7833C65.4464 24.1755 64.9513 24.4093 64.4248 24.4309C63.3386 24.3346 62.5057 23.4308 62.5057 22.3475C62.5057 21.2635 63.3398 20.3591 64.4273 20.264C64.9529 20.2908 65.4453 20.5271 65.7928 20.9193C66.1405 21.3115 66.3138 21.8267 66.2736 22.3475C66.3186 22.8709 66.1457 23.3897 65.7954 23.7833ZM84.257 15.483H80.6132V25.5779H82.1341V21.7499H84.257C85.4385 21.8342 86.5686 21.2561 87.1852 20.2519C87.8019 19.2476 87.8019 17.9854 87.1852 16.9811C86.5686 15.9769 85.4385 15.3988 84.257 15.483ZM82.1341 20.3286H84.257L84.2896 20.3528C85.253 20.3528 86.0342 19.5772 86.0342 18.6205C86.0342 17.6638 85.253 16.8882 84.2896 16.8882H82.1341V20.3286ZM93.635 18.8749C92.5034 18.8077 91.4396 19.4137 90.9265 20.4174L92.2768 20.9746C92.5487 20.4769 93.091 20.1855 93.6594 20.2317C94.0494 20.1864 94.4414 20.2987 94.7473 20.5431C95.0531 20.7877 95.2473 21.144 95.2861 21.5319V21.6369C94.7976 21.3801 94.2528 21.2469 93.7001 21.2492C92.2442 21.2492 90.772 22.0568 90.772 23.5186C90.801 24.1482 91.0853 24.7395 91.5603 25.1578C92.0352 25.5762 92.6602 25.7859 93.2934 25.7394C94.0736 25.795 94.8221 25.4234 95.2455 24.7703H95.2943V25.5779H96.7583V21.6934C96.7583 19.9248 95.4082 18.8991 93.6756 18.8991L93.635 18.8749ZM92.2605 23.5509C92.2605 24.1565 92.9518 24.4069 93.4479 24.4069L93.4886 24.4311C94.4049 24.4089 95.1647 23.72 95.2698 22.816C94.8479 22.582 94.3703 22.4649 93.8871 22.4768C93.1226 22.4768 92.2605 22.7433 92.2605 23.5509ZM102.094 19.1172L100.353 23.4943H100.305L98.4988 19.1172H96.8722L99.5806 25.2387L98.0353 28.6387H99.6214L103.786 19.1172H102.094ZM89.9424 25.5779H88.4213V15.483H89.9424V25.5779Z" fill="white"/>
<path d="M9.83757 7.43544C9.57831 7.75368 9.4504 8.15779 9.4797 8.56606V26.43C9.45494 26.8403 9.58874 27.2447 9.85385 27.5606L9.91078 27.6171L19.9721 17.6192V17.385L9.89451 7.37891L9.83757 7.43544Z" fill="url(#paint0_linear_1985_5)"/>
<path d="M23.3064 20.954L19.9717 17.6186V17.3844L23.3064 14.041L23.3796 14.0814L27.3732 16.3346C28.5119 16.9726 28.5119 18.0224 27.3732 18.6685L23.3959 20.9136L23.3064 20.954Z" fill="url(#paint1_linear_1985_5)"/>
<path d="M23.4047 20.9141L19.9723 17.498L9.83789 27.5606C10.3167 27.9785 11.0274 27.9989 11.5297 27.6091L23.4129 20.9061" fill="url(#paint2_linear_1985_5)"/>
<path d="M23.404 14.0897L11.5209 7.38667C11.0186 6.99682 10.3079 7.01717 9.8291 7.43513L19.9716 17.4977L23.404 14.0897Z" fill="url(#paint3_linear_1985_5)"/>
<path opacity="0.2" d="M23.3071 20.833L11.5215 27.4956C11.0392 27.8537 10.3771 27.8537 9.89483 27.4956L9.83789 27.5521L9.89483 27.6087C10.3762 27.9694 11.0401 27.9694 11.5215 27.6087L23.4047 20.9057L23.3071 20.833Z" fill="black"/>
<path opacity="0.12" d="M9.83703 27.447C9.57192 27.1311 9.43812 26.7268 9.46287 26.3164V26.4375C9.43812 26.8479 9.57192 27.2523 9.83703 27.5682L9.89396 27.5116L9.83703 27.447Z" fill="black"/>
<path opacity="0.12" d="M27.3734 18.5479L23.3066 20.8334L23.3799 20.9061L27.3734 18.661C27.8347 18.4459 28.1449 18.0023 28.1868 17.498C28.0942 17.9542 27.7937 18.342 27.3734 18.5479Z" fill="black"/>
<path opacity="0.25" d="M11.521 7.50021L27.3733 16.4483C27.7937 16.6542 28.094 17.042 28.1867 17.4982C28.1448 16.994 27.8346 16.5503 27.3733 16.3352L11.521 7.38715C10.3905 6.74108 9.47949 7.27409 9.47949 8.56623V8.68737C9.47949 7.39523 10.3905 6.86222 11.521 7.50021Z" fill="white"/>
</g>
<defs>
<linearGradient id="paint0_linear_1985_5" x1="15.5632" y1="-4.77718" x2="-0.5546" y2="-0.472374" gradientUnits="userSpaceOnUse">
<stop stop-color="#00A0FF"/>
<stop offset="0.01" stop-color="#00A1FF"/>
<stop offset="0.26" stop-color="#00BEFF"/>
<stop offset="0.51" stop-color="#00D2FF"/>
<stop offset="0.76" stop-color="#00DFFF"/>
<stop offset="1" stop-color="#00E3FF"/>
</linearGradient>
<linearGradient id="paint1_linear_1985_5" x1="28.8616" y1="9.25985" x2="9.18649" y2="9.25985" gradientUnits="userSpaceOnUse">
<stop stop-color="#FFE000"/>
<stop offset="0.41" stop-color="#FFBD00"/>
<stop offset="0.78" stop-color="#FFA500"/>
<stop offset="1" stop-color="#FF9C00"/>
</linearGradient>
<linearGradient id="paint2_linear_1985_5" x1="9.54011" y1="12.271" x2="-3.28605" y2="33.9999" gradientUnits="userSpaceOnUse">
<stop stop-color="#FF3A44"/>
<stop offset="1" stop-color="#C31162"/>
</linearGradient>
<linearGradient id="paint3_linear_1985_5" x1="1.92329" y1="4.65379" x2="7.64827" y2="14.3568" gradientUnits="userSpaceOnUse">
<stop stop-color="#32A071"/>
<stop offset="0.07" stop-color="#2DA771"/>
<stop offset="0.48" stop-color="#15CF74"/>
<stop offset="0.8" stop-color="#06E775"/>
<stop offset="1" stop-color="#00F076"/>
</linearGradient>
<clipPath id="clip0_1985_5">
<rect width="113.062" height="34.9955" fill="white"/>
</clipPath>
</defs>
</svg>
