<svg width="20" height="20" viewBox="0 0 20 20" fill="none" xmlns="http://www.w3.org/2000/svg">
<path d="M5.23145 3.33325L7.44834 10.9711H12.2307C13.9042 10.9711 15.4153 9.96993 16.0677 8.42884L16.5526 7.28334C16.7852 6.73388 16.3819 6.12514 15.7852 6.12514H6.01451" stroke="#404554" stroke-width="0.833333"/>
<path d="M3.33301 3.33325H3.979C4.72055 3.33325 5.37291 3.82319 5.57961 4.53534L7.44759 10.9712H12.2299C13.9034 10.9712 15.4146 9.96992 16.0669 8.42884L16.5518 7.28334C16.7845 6.73388 16.3812 6.12514 15.7844 6.12514H6.01377" stroke="#404554" stroke-width="0.833333"/>
<path d="M8.65381 16.6667C9.35248 16.6667 9.9189 16.1003 9.9189 15.4016C9.9189 14.7029 9.35248 14.1365 8.65381 14.1365C7.9551 14.1365 7.38867 14.7029 7.38867 15.4016C7.38867 16.1003 7.9551 16.6667 8.65381 16.6667Z" stroke="#404554" stroke-width="0.833333"/>
<path d="M15.5165 13.0164H9.27116C8.51399 13.0164 7.8519 12.5059 7.6593 11.7737L7.44824 10.9712H12.1025" stroke="#404554" stroke-width="0.833333"/>
<path d="M14.019 16.6667C14.7177 16.6667 15.2842 16.1003 15.2842 15.4016C15.2842 14.7029 14.7177 14.1365 14.019 14.1365C13.3203 14.1365 12.7539 14.7029 12.7539 15.4016C12.7539 16.1003 13.3203 16.6667 14.019 16.6667Z" stroke="#404554" stroke-width="0.833333"/>
</svg>
