<svg width="44" height="44" viewBox="0 0 44 44" fill="none" xmlns="http://www.w3.org/2000/svg">
<path fill-rule="evenodd" clip-rule="evenodd" d="M0 21.6001C0 9.67144 9.67139 0 21.6 0C33.5286 0 43.2 9.67144 43.2 21.6001C43.2 33.5288 33.5286 43.2002 21.6 43.2002C9.67139 43.2002 0 33.5288 0 21.6001Z" fill="#FEEE00"/>
<path fill-rule="evenodd" clip-rule="evenodd" d="M13.9985 14.1693C15.3665 14.1693 16.1999 13.1739 16.1999 11.9445C16.1729 10.6845 15.3683 9.71973 14.0525 9.71973C12.7385 9.71973 11.8799 10.6863 11.8799 11.9445C11.8799 13.1739 12.7115 14.1693 13.9985 14.1693ZM11.9879 15.9262V30.2398H16.0667V15.9262H11.9879Z" fill="#404553"/>
<path d="M18.4792 20.8892C18.4792 19.1774 18.4198 17.7446 18.3604 16.5098H22.3203L22.5309 18.4178H22.6209C23.2203 17.5214 24.6909 16.2002 27.1497 16.2002C30.1503 16.2002 32.4003 18.0812 32.4003 22.124V30.2403H27.8391V22.6298C27.8391 20.8622 27.1803 19.6544 25.5297 19.6544C24.2697 19.6544 23.5209 20.468 23.1897 21.2564C23.0709 21.5354 23.0403 21.9278 23.0403 22.322V30.2403H18.4792V20.8892Z" fill="#404553"/>
</svg>
