<svg width="87" height="24" viewBox="0 0 87 24" fill="none" xmlns="http://www.w3.org/2000/svg">
<g clip-path="url(#clip0_1873_3)">
<path d="M80.8527 4.83911C79.3192 4.83911 77.9272 5.33795 76.8597 6.25635L76.5522 5.1678H73.8457V18.8531H77.2862V11.4172C77.2862 9.83445 78.3472 8.2307 80.3727 8.2307C81.9577 8.2307 82.9017 9.34725 82.9017 11.2144V18.8554H86.3422V10.9626C86.3422 7.2424 84.1887 4.83911 80.8527 4.83911ZM53.3542 11.9999C53.3542 14.1841 51.9297 15.7692 49.9647 15.7692C47.9997 15.7692 46.5754 14.1841 46.5754 11.9999C46.5754 9.8158 47.9997 8.2307 49.9647 8.2307C51.9272 8.2307 53.3542 9.8158 53.3542 11.9999ZM49.9624 4.83911C46.1046 4.83911 43.0813 7.98365 43.0813 11.9976C43.0813 16.0116 46.1022 19.1584 49.9624 19.1584C53.8202 19.1584 56.8437 16.0139 56.8437 11.9976C56.8437 7.98365 53.8227 4.83911 49.9624 4.83911ZM68.3892 11.9999C68.3892 14.1841 66.9622 15.7692 64.9997 15.7692C63.0372 15.7692 61.6102 14.1841 61.6102 11.9999C61.6102 9.8158 63.0372 8.2307 64.9997 8.2307C66.9647 8.2307 68.3892 9.8158 68.3892 11.9999ZM64.9997 4.83911C61.1417 4.83911 58.1187 7.98365 58.1187 11.9976C58.1187 16.0116 61.1397 19.1584 64.9997 19.1584C68.8577 19.1584 71.8807 16.0139 71.8807 11.9976C71.8807 7.98365 68.8597 4.83911 64.9997 4.83911ZM35.629 4.83911C34.0976 4.83911 32.7036 5.33795 31.6337 6.25635L31.326 5.1678H28.6221V18.8531H32.0626V11.4172C32.0626 9.83445 33.1232 8.2307 35.1489 8.2307C36.7339 8.2307 37.678 9.34725 37.678 11.2144V18.8554H41.1185V10.9626C41.1185 7.2424 38.9647 4.83911 35.629 4.83911Z" fill="#404553"/>
<path d="M0 12.5688C0 19.0024 5.46855 24 11.8251 24C18.4802 24 23.8741 18.6317 23.8741 12.0746C23.8741 8.2401 22.0187 4.87413 19.2728 2.62471L17.268 6.0886C18.9254 7.49885 20.063 9.676 20.063 12.1258C20.063 16.5781 16.3776 20.2401 11.8251 20.2401C7.29835 20.2401 3.61072 16.5781 3.61072 12.0023C3.61072 11.4569 3.65968 10.9138 3.75991 10.394L0 12.5688ZM15.5361 0.594405C14.3986 0.172494 13.3846 0 12.3707 0C11.6038 0 10.9347 0.097902 10.4405 0.198135L7.86715 4.65035C8.80655 4.10723 10.0187 3.80886 11.331 3.80886C12.0979 3.80886 12.7902 3.90676 13.5082 4.1049L15.5361 0.594405Z" fill="#404553"/>
</g>
<defs>
<clipPath id="clip0_1873_3">
<rect width="86.5" height="24" fill="white"/>
</clipPath>
</defs>
</svg>
