<svg width="8" height="8" viewBox="0 0 8 8" fill="none" xmlns="http://www.w3.org/2000/svg">
<g clip-path="url(#clip0_1976_3)">
<path d="M7.8346 3.56013L6.22263 4.94846C6.1309 5.03093 6.07847 5.1684 6.1178 5.2921L6.6027 7.38143C6.6682 7.7251 6.43233 8 6.1571 8C6.07847 8 5.98673 7.9725 5.9081 7.91753L4.152 6.77663C4.04717 6.7079 3.9161 6.7079 3.81127 6.77663L2.06827 7.90376C1.98964 7.95876 1.8979 7.98626 1.81927 7.98626C1.54406 7.98626 1.28195 7.71133 1.37369 7.3677L1.85858 5.27836C1.88479 5.15463 1.84548 5.0172 1.75374 4.9347L0.168005 3.56013C-0.159627 3.27148 0.0238469 2.7079 0.443217 2.68041L2.50074 2.52921C2.61869 2.51546 2.72353 2.43299 2.77595 2.32302L3.56227 0.316151C3.6409 0.109966 3.82437 0 4.00783 0C4.19133 0 4.3748 0.109966 4.45343 0.316151L5.23973 2.32302C5.29217 2.44673 5.397 2.52921 5.51497 2.52921L7.57247 2.68041C7.96563 2.7079 8.16223 3.27148 7.8346 3.56013Z" fill="black"/>
</g>
<defs>
<clipPath id="clip0_1976_3">
<rect width="8" height="8" fill="white"/>
</clipPath>
</defs>
</svg>
