<svg width="44" height="44" viewBox="0 0 44 44" fill="none" xmlns="http://www.w3.org/2000/svg">
<path fill-rule="evenodd" clip-rule="evenodd" d="M0 21.8235C0 10.019 9.54719 0.450195 21.3228 0.450195C33.0984 0.450195 42.6455 10.0208 42.6455 21.8253C42.6455 33.6333 33.0984 43.2022 21.3228 43.2022C9.54719 43.2022 0 33.6297 0 21.8235Z" fill="#FEEE00"/>
<path fill-rule="evenodd" clip-rule="evenodd" d="M21.749 18.8916L21.794 19.6314L21.0488 19.5414C18.3344 19.194 15.962 18.0168 13.9496 16.0386L12.965 15.0575L12.7112 15.7829C12.1748 17.3976 12.5168 19.104 13.6364 20.2506C14.2322 20.8842 14.099 20.976 13.0694 20.598C12.7112 20.4774 12.398 20.3874 12.3674 20.4324C12.263 20.5368 12.6212 21.9102 12.9056 22.4538C13.2926 23.2098 14.0828 23.9478 14.9486 24.387L15.6794 24.7344L14.8154 24.7488C13.9784 24.7488 13.9496 24.7632 14.0378 25.0818C14.3366 26.0628 15.5138 27.1032 16.8278 27.5568L17.753 27.8736L16.9466 28.356C15.7293 29.0576 14.3552 29.442 12.9506 29.4738C12.2792 29.4882 11.7266 29.5494 11.7266 29.5944C11.7266 29.7456 13.5464 30.5898 14.6066 30.9228C17.7818 31.9038 21.5546 31.4808 24.3895 29.8068C26.4019 28.6134 28.4161 26.2428 29.3575 23.9496C29.8615 22.7256 30.3709 20.4936 30.3709 19.4208C30.3709 18.726 30.4141 18.636 31.2493 17.8044C31.7425 17.322 32.2033 16.7946 32.2933 16.6434C32.4427 16.3554 32.4283 16.3554 31.6669 16.6128C30.3997 17.0664 30.2215 17.0052 30.8479 16.3248C31.3087 15.8424 31.8613 14.9675 31.8613 14.7101C31.8613 14.6651 31.6381 14.7407 31.3843 14.8775C31.1143 15.0269 30.5203 15.2555 30.0703 15.3905L29.2657 15.6462L28.5349 15.1493C28.1335 14.8775 27.5665 14.5733 27.2677 14.4833C26.5081 14.2727 25.3435 14.3033 24.6577 14.5445C22.793 15.2231 21.6158 16.9746 21.749 18.8916Z" fill="#404553"/>
</svg>
